<svg xmlns="http://www.w3.org/2000/svg" viewBox="0 0 80 69" width="80" height="69">
	<style>
		tspan { white-space:pre }
		.shp0 { fill: #000000 } 
	</style>
	<g id="Layer">
		<path id="Layer" class="shp0" d="M38.37 0.13C32.69 0.46 27.44 2.05 22.69 4.89C17.92 7.73 13.9 11.71 11.05 16.4C10.3 17.65 9.42 19.34 8.9 20.55C8.69 21.05 8.68 21.09 8.66 21.38C8.65 21.74 8.72 22.01 8.92 22.27C9.08 22.49 9.33 22.67 9.58 22.75C9.75 22.81 9.85 22.82 10.1 22.81C10.36 22.8 10.43 22.78 10.63 22.68C10.88 22.56 11.13 22.32 11.23 22.11C11.27 22.04 11.42 21.71 11.56 21.39C12.9 18.37 14.73 15.56 16.98 13.08C17.52 12.49 18.86 11.17 19.4 10.69C21.56 8.8 23.72 7.35 26.24 6.1C29.44 4.52 32.7 3.53 36.22 3.09C39.27 2.71 42.34 2.78 45.37 3.29C51.03 4.25 56.33 6.76 60.68 10.55C61.25 11.04 61.45 11.15 61.84 11.17C62.29 11.19 62.65 11.05 62.95 10.73C63.43 10.21 63.43 9.4 62.94 8.87C62.76 8.67 62.02 8.03 61.33 7.49C57.49 4.43 53.09 2.27 48.32 1.09C46.45 0.63 44.67 0.34 42.59 0.18C41.82 0.12 39.15 0.09 38.37 0.13Z" />
		<path id="Layer" fill-rule="evenodd" class="shp0" d="M69.22 9.17C69.51 9.17 69.57 9.19 69.76 9.28C70.02 9.41 70.24 9.64 70.36 9.91C70.83 10.87 70.7 12.94 70.03 15.3C69.43 17.45 68.5 19.63 66.33 24.05C64.97 26.81 64.6 27.59 64.45 28.07C64.34 28.41 64.17 29.14 64.11 29.5C64.02 30.08 64.27 31.04 64.59 31.34C64.71 31.45 64.84 31.44 65.17 31.28C65.71 31.02 66.44 30.49 67.35 29.68C67.75 29.33 67.78 29.3 67.77 29.19C67.72 28.25 67.72 28.02 67.76 27.71C67.87 26.74 68.38 24.91 68.82 23.89C69.3 22.79 69.89 21.9 70.64 21.19C71.43 20.44 72.23 20 73.18 19.8C73.65 19.7 74.33 19.7 74.71 19.8C75.77 20.09 76.37 20.87 76.44 22.07C76.47 22.66 76.34 23.22 76 23.99C75.69 24.66 75.18 25.5 74.7 26.09C74.42 26.44 73.77 27.08 73.38 27.41C72.77 27.93 71.87 28.53 71.25 28.84L71.07 28.93L71.13 29.03C71.24 29.21 71.62 29.58 71.79 29.66C72.15 29.83 72.7 29.77 73.45 29.46C74.25 29.13 75.33 28.42 76.42 27.51C76.84 27.16 78.1 25.93 78.46 25.52L78.66 25.29L79.44 25.91C79.86 26.24 80.24 26.54 80.26 26.56C80.29 26.59 80.22 26.7 79.91 27.08C77.72 29.79 75.28 31.72 73.14 32.43C71.44 33 70 32.8 69.02 31.88L68.8 31.67L68.54 31.88C67.87 32.41 66.85 33.14 66.22 33.53C65.63 33.9 64.81 34.31 64.34 34.47C64 34.59 63.93 34.6 63.61 34.6C63.27 34.6 63.26 34.6 63 34.47C62.79 34.37 62.67 34.28 62.43 34.04C62.27 33.88 62.06 33.63 61.98 33.49C61.73 33.12 61.44 32.5 61.29 32.01C61.21 31.77 61.14 31.57 61.13 31.58C61.12 31.58 61 31.73 60.87 31.91C59.8 33.41 58.56 34.72 57.42 35.53C56.43 36.23 55.65 36.55 54.65 36.69C53.31 36.86 52.09 36.41 51.35 35.46L51.25 35.33L51.04 35.61C50.35 36.51 48.89 38.04 47.55 39.26C46.97 39.78 46.87 39.89 46.76 40.12C46.59 40.49 46.51 40.94 46.35 42.43C46.06 45.27 45.96 45.91 45.65 46.96C45.35 47.99 44.87 48.98 44.3 49.74C43.3 51.06 41.83 51.81 40.27 51.81C39.72 51.81 39.42 51.75 39.04 51.57C38.61 51.36 38.27 50.91 38.1 50.34C38.03 50.1 38.03 50 38.03 49.44C38.03 48.88 38.04 48.78 38.12 48.42C38.3 47.69 38.5 47.18 39.19 45.82C39.92 44.37 40.26 43.83 41.27 42.45C42.27 41.1 42.77 40.47 43.41 39.75L43.66 39.47L43.78 38.71C43.85 38.28 43.91 37.93 43.91 37.91C43.91 37.9 43.75 38.05 43.56 38.25C42.72 39.09 41.91 39.63 41.18 39.84C40.88 39.93 40.23 39.96 39.91 39.91C39.03 39.75 38.31 39.1 38.03 38.2C37.98 38.04 37.93 37.88 37.92 37.85C37.9 37.8 37.79 37.91 37.46 38.31C36.93 38.95 36 39.89 35.47 40.31C34.7 40.93 33.83 41.44 33.19 41.64C32.62 41.82 32.3 41.87 31.63 41.87C30.93 41.87 30.71 41.83 30.19 41.62C29.72 41.42 29.14 40.97 28.87 40.59L28.8 40.49L28.35 40.9C27.43 41.77 26.5 42.47 25.48 43.08C24.09 43.89 22.87 44.15 22.12 43.77C21.34 43.38 21.13 42.29 21.43 40.14C21.56 39.22 21.82 37.66 21.92 37.3C21.97 37.11 22.15 36.42 22.32 35.77C22.49 35.13 22.7 34.34 22.79 34.04C22.88 33.73 23.01 33.22 23.1 32.9C23.19 32.57 23.29 32.27 23.34 32.18C23.54 31.83 24.06 31.41 24.6 31.13C25.19 30.84 25.86 30.7 26.1 30.83C26.32 30.94 26.38 31.26 26.29 31.8C26.2 32.28 25.78 34.02 25.54 34.86C25.22 35.98 25.1 36.5 24.98 37.23C24.92 37.56 24.81 38.11 24.74 38.43C24.56 39.28 24.53 39.51 24.55 40.04C24.58 40.97 24.77 41.2 25.36 41C25.85 40.83 26.31 40.46 27.31 39.47L28.07 38.71L28.05 38.57C28.04 38.5 28.02 38.14 28.01 37.77C27.98 37.02 28.03 36.57 28.24 35.64C28.52 34.4 28.86 33.44 29.32 32.5C30.02 31.09 30.96 30.03 32.06 29.39C32.83 28.93 33.9 28.68 34.74 28.76C35.44 28.83 35.89 29.02 36.3 29.44C36.78 29.92 36.93 30.35 36.91 31.16C36.89 31.73 36.81 32.02 36.5 32.66C36.24 33.2 35.97 33.61 35.74 33.84C35.33 34.24 34.58 34.46 34.21 34.29C34.11 34.24 34.05 34.19 33.96 34.02C33.8 33.73 33.81 33.49 33.98 32.78C34.1 32.28 34.1 32.23 34.09 31.87C34.07 31.45 34.04 31.34 33.92 31.26C33.84 31.21 33.82 31.21 33.64 31.26C33.29 31.36 33.02 31.53 32.73 31.84C32.3 32.27 32.07 32.71 31.76 33.65C31.42 34.68 31.26 35.46 31.23 36.38C31.16 37.85 31.51 38.75 32.27 39.12C32.47 39.22 32.51 39.23 32.82 39.23C33.23 39.23 33.47 39.17 33.91 38.95C34.88 38.47 36.33 37.13 37.58 35.56C37.76 35.32 37.93 35.1 37.95 35.06C37.96 35.03 38.07 34.38 38.18 33.64C38.48 31.59 38.59 31.05 38.87 30.24C39.06 29.66 39.49 28.62 39.64 28.34C39.9 27.85 40.31 27.44 40.82 27.16C41.41 26.83 42.07 26.78 42.34 27.06C42.56 27.28 42.57 27.69 42.37 28.33C42.17 28.98 42.1 29.3 41.64 31.92C41.11 34.89 41.09 35.01 41.09 35.62C41.09 36.38 41.19 36.75 41.44 37.01C41.77 37.35 42.29 37.25 42.77 36.76C43.39 36.13 44 34.67 44.23 33.28C44.31 32.82 45.23 28.1 45.29 27.86C45.49 27.11 46.29 26.22 47.11 25.85C47.72 25.58 48.29 25.59 48.46 25.87C48.52 25.95 48.52 26.01 48.51 26.23C48.5 26.38 48.25 28.03 47.95 29.9C47.64 31.78 47.33 33.74 47.25 34.27C47.01 35.83 46.8 37.3 46.81 37.32C46.83 37.33 47.3 36.92 47.64 36.6C48.34 35.93 49.18 34.88 50.06 33.56L50.45 32.98L50.45 32.43C50.45 31.82 50.51 31.32 50.68 30.57C51.22 28.15 52.06 26.4 53.28 25.18C54.1 24.36 55.02 23.85 56.07 23.65C56.52 23.56 57.27 23.57 57.66 23.67C58.54 23.89 59.14 24.47 59.32 25.29C59.41 25.66 59.37 26.37 59.26 26.76C59.15 27.11 58.78 27.88 58.54 28.24C58.23 28.71 57.81 29.02 57.35 29.13C57.12 29.18 56.76 29.18 56.66 29.13C56.54 29.07 56.39 28.84 56.33 28.63C56.27 28.41 56.28 28.3 56.44 27.62C56.55 27.14 56.56 27.06 56.54 26.71C56.52 26.08 56.44 25.99 56.01 26.12C55.58 26.26 55.16 26.6 54.83 27.09C54.43 27.68 53.88 29.34 53.74 30.39C53.67 30.91 53.67 31.95 53.73 32.35C53.85 33.17 54.19 33.7 54.75 33.96C54.95 34.06 55 34.07 55.27 34.07C55.91 34.06 56.48 33.81 57.3 33.18C58.32 32.38 59.41 31.23 60.43 29.87L60.76 29.44L60.72 29.06C60.68 28.54 60.71 26.94 60.78 26.37C60.85 25.7 60.94 25.11 61.18 23.64C61.36 22.53 61.44 22.12 61.72 20.98C62.08 19.51 62.28 18.77 62.51 18C63.1 16.06 64.2 13.72 65.26 12.13C66.39 10.44 67.53 9.48 68.72 9.2C68.82 9.18 69.05 9.16 69.22 9.17ZM67.54 12.46C67.25 12.59 66.87 13.08 66.49 13.79C65.98 14.74 65.67 15.64 64.93 18.35C64.67 19.31 64.58 19.68 64.39 20.7C64.15 22.06 64 23.05 63.95 23.71C63.9 24.34 63.89 24.4 63.91 24.4C63.94 24.4 64.73 22.71 65.23 21.56C66.89 17.76 67.88 14.39 67.8 12.87C67.77 12.41 67.74 12.37 67.54 12.46ZM73.11 22.28C72.75 22.41 72.51 22.55 72.21 22.83C71.74 23.27 71.55 23.62 71.22 24.57C70.9 25.53 70.82 25.87 70.78 26.4C70.76 26.67 70.75 26.87 70.77 26.89C70.84 26.96 71.42 26.69 71.87 26.38C72.5 25.95 73.06 25.38 73.51 24.7C73.8 24.26 73.94 24 74.04 23.7C74.14 23.41 74.15 23.23 74.08 22.91C74.02 22.64 73.94 22.47 73.79 22.32C73.63 22.16 73.47 22.15 73.11 22.28ZM42.99 43.37C42.16 44.45 41.27 46.21 40.71 47.88C40.43 48.72 40.4 49.04 40.6 49.24C40.72 49.36 40.92 49.36 41.26 49.25C41.68 49.1 41.92 48.91 42.22 48.47C42.42 48.17 42.59 47.81 42.8 47.18C43 46.59 43.39 45.2 43.45 44.88C43.47 44.73 43.71 42.67 43.71 42.6C43.71 42.51 43.35 42.89 42.99 43.37Z" />
		<path id="Layer" class="shp0" d="M12.6 24.43C9.25 24.69 6.23 25.63 3.93 27.16C1.74 28.61 0.45 30.44 0.06 32.65C-0.02 33.14 -0.06 34.18 0 34.55C0.11 35.29 0.48 35.38 1.06 34.79C1.52 34.32 2.05 33.5 2.66 32.28C2.86 31.88 3.09 31.47 3.16 31.36C3.23 31.25 3.48 30.98 3.69 30.76C4.35 30.12 5.06 29.63 6.15 29.09C7.49 28.44 8.82 27.99 10.75 27.56C14.01 26.83 16.68 26.97 17.7 27.91C18.08 28.26 18.21 28.67 18.14 29.28C17.99 30.64 17.06 31.91 15.53 32.87C14.49 33.53 13.32 33.93 11.83 34.15C11.28 34.23 10.67 34.36 10.42 34.46C10.19 34.54 9.95 34.71 9.86 34.84C9.74 35.03 9.71 35.19 9.72 35.66C9.74 36.02 9.75 36.11 9.82 36.25C9.96 36.54 10.24 36.76 10.62 36.9C11 37.03 11.32 37.07 12.42 37.12C13.7 37.17 14.3 37.23 14.67 37.35C15.5 37.61 16 38.12 16.14 38.88C16.21 39.22 16.19 40.12 16.1 40.58C15.9 41.73 15.39 42.68 14.51 43.56C13.93 44.14 13.41 44.51 12.64 44.9C11.12 45.65 9.49 45.97 7.71 45.86C7.25 45.83 7.1 45.81 7.06 45.77C7.02 45.74 6.97 45.62 6.93 45.5C6.86 45.3 6.85 45.19 6.84 44.37C6.82 43.12 6.92 40.56 7.05 39.1C7.16 37.78 7.36 36.33 7.53 35.46C7.82 34.01 8.48 32.2 9.12 31.1C9.23 30.91 9.28 30.79 9.27 30.74C9.26 30.71 9.16 30.6 9.06 30.49C8.57 29.99 7.98 29.93 7.24 30.29C6.99 30.41 6.46 30.78 6.21 31.01C6 31.2 5.34 32.53 4.93 33.57C4.04 35.82 3.48 39.04 3.28 43.03C3.23 44.04 3.17 47.54 3.2 47.75C3.23 48.01 3.33 48.14 3.54 48.21C3.97 48.36 6.7 48.46 7.98 48.37C10.88 48.19 12.77 47.68 14.51 46.63C16.65 45.34 18.22 43.32 18.79 41.11C18.97 40.43 19.01 40.03 19.01 39.34C19.01 38.87 19 38.64 18.95 38.35C18.64 36.68 17.8 35.66 16.41 35.29C15.82 35.14 15.19 35.11 14.38 35.23C14.28 35.24 14.28 35.24 14.39 35.21C16.15 34.65 16.89 34.31 17.94 33.62C18.59 33.19 19.04 32.82 19.5 32.35C20.46 31.37 21 30.41 21.28 29.21C21.36 28.85 21.37 28.75 21.37 28.2C21.38 27.61 21.37 27.58 21.28 27.33C21.15 26.95 20.96 26.64 20.64 26.32C20.3 25.96 19.94 25.7 19.43 25.44C18.47 24.96 17.35 24.66 15.82 24.48C15.3 24.42 13.21 24.39 12.6 24.43Z" />
		<path id="Layer" class="shp0" d="M26.49 24.9C26 24.96 25.41 25.16 25.09 25.37C24.86 25.51 24.47 25.84 24.33 26.01C24.12 26.26 23.89 26.67 23.79 26.96C23.69 27.28 23.65 27.87 23.71 28.18C23.8 28.61 24.07 28.95 24.44 29.12C24.83 29.3 25.64 29.25 26.35 28.99C27.23 28.67 27.95 27.93 28.2 27.07C28.3 26.73 28.32 26.08 28.25 25.79C28.14 25.38 27.84 25.06 27.46 24.95C27.24 24.88 26.77 24.86 26.49 24.9Z" />
		<path id="Layer" class="shp0" d="M71.96 38.02C71.75 38.07 71.46 38.25 71.3 38.42C71.09 38.63 70.99 38.85 70.93 39.2C70.56 41.17 70.27 42.31 69.73 43.89C67.7 49.96 63.77 55.31 58.56 59.11C54.05 62.41 48.59 64.47 43 64.98C41.65 65.11 39.64 65.14 38.36 65.07C33.96 64.8 29.87 63.7 25.99 61.74C21.24 59.35 17.25 55.82 14.19 51.33C13.76 50.7 13.51 50.52 12.98 50.47C12.09 50.38 11.35 51.19 11.51 52.07C11.56 52.34 11.67 52.55 12.11 53.19C16.21 59.12 22.01 63.55 28.81 65.95C31.74 66.98 34.76 67.59 38.11 67.82C39.02 67.88 41.46 67.87 42.39 67.8C44.58 67.63 46.39 67.35 48.34 66.86C57.49 64.59 65.23 58.69 69.83 50.47C71.55 47.41 72.77 44.1 73.49 40.57C73.62 39.91 73.65 39.73 73.65 39.39C73.65 39.03 73.64 38.98 73.56 38.8C73.38 38.41 73.1 38.17 72.7 38.05C72.49 37.98 72.18 37.97 71.96 38.02Z" />
		<path id="Layer" fill-rule="evenodd" class="shp0" d="M65.68 38.39C65.86 38.54 65.94 38.75 65.96 39.1C65.99 39.57 65.87 39.92 65.58 40.24C65.41 40.43 65.07 40.58 64.52 40.7L64.05 40.81L64.05 42.51L63.77 42.57L63.5 42.64L63.48 41.1C63.46 40.25 63.45 39.34 63.46 39.07L63.47 38.57L64.21 38.4C65.19 38.17 65.44 38.17 65.68 38.39ZM64.44 38.91L64.06 39L64.05 39.62C64.05 39.96 64.05 40.24 64.07 40.24C64.14 40.24 64.96 40.03 65.04 39.99C65.09 39.97 65.18 39.88 65.25 39.81C65.48 39.56 65.49 39.08 65.27 38.9C65.14 38.79 64.95 38.79 64.44 38.91Z" />
		<path id="Layer" fill-rule="evenodd" class="shp0" d="M61.23 39.32C61.69 39.55 61.92 40.1 61.92 40.98C61.92 42.27 61.36 43.18 60.41 43.4C59.81 43.54 59.31 43.31 59.06 42.78C58.7 42.02 58.8 40.73 59.27 40.02C59.59 39.55 59.98 39.29 60.51 39.21C60.78 39.17 60.99 39.2 61.23 39.32ZM59.86 40.13C59.58 40.43 59.44 40.88 59.44 41.5C59.44 42.23 59.61 42.64 59.97 42.8C60.14 42.87 60.3 42.86 60.52 42.78C61.08 42.57 61.4 41.87 61.35 40.96C61.32 40.38 61.15 40 60.86 39.86C60.56 39.7 60.16 39.81 59.86 40.13Z" />
		<path id="Layer" class="shp0" d="M56.98 40.06L56.75 40.11L56.75 40.97C56.75 41.75 56.75 41.82 56.69 41.84C56.66 41.85 56.31 41.93 55.9 42.02C55.5 42.11 55.15 42.2 55.12 42.21C55.06 42.22 55.06 42.16 55.05 41.37L55.04 40.51L54.77 40.58L54.49 40.64L54.49 42.67C54.49 43.79 54.5 44.7 54.52 44.7C54.53 44.7 54.66 44.67 54.8 44.64L55.06 44.58L55.06 43.69L55.07 42.81L55.84 42.63C56.26 42.53 56.63 42.44 56.68 42.43L56.75 42.42L56.75 43.29C56.75 43.97 56.76 44.17 56.79 44.17C56.81 44.17 56.94 44.15 57.07 44.11L57.31 44.06L57.31 42.03C57.31 40.12 57.31 40 57.26 40.01C57.22 40.01 57.1 40.03 56.98 40.06Z" />
		<path id="Layer" class="shp0" d="M51.79 41.21C51.31 41.32 50.89 41.65 50.68 42.07C50.58 42.28 50.56 42.34 50.55 42.64C50.53 43.13 50.62 43.34 50.89 43.48C51.09 43.59 51.18 43.61 51.68 43.66C52.15 43.71 52.3 43.75 52.38 43.88C52.45 43.97 52.45 44.2 52.39 44.35C52.29 44.6 51.9 44.82 51.49 44.85C51.27 44.87 50.98 44.81 50.79 44.69C50.7 44.64 50.68 44.64 50.66 44.67C50.65 44.7 50.61 44.83 50.56 44.96C50.47 45.25 50.47 45.24 50.78 45.36C51 45.45 51.45 45.46 51.74 45.4C52.25 45.27 52.67 44.96 52.87 44.55C52.97 44.35 52.99 44.29 53 44C53.02 43.31 52.79 43.1 51.89 43.01C51.3 42.96 51.16 42.9 51.11 42.68C51.05 42.42 51.2 42.09 51.44 41.94C51.76 41.73 52.19 41.71 52.54 41.88C52.68 41.95 52.74 41.97 52.75 41.95C52.76 41.92 52.81 41.8 52.85 41.67C52.93 41.45 52.93 41.43 52.87 41.38C52.68 41.2 52.17 41.12 51.79 41.21Z" />
	</g>
</svg>